<svg width="240" height="48" fill="none" xmlns="http://www.w3.org/2000/svg"><path d="M87.64 7.194a.635.635 0 00.623-.623V.86a.635.635 0 00-.624-.623H69.408a.635.635 0 00-.624.623v5.71c0 .336.288.623.624.623h5.277V28.4c0 .335.288.623.624.623h6.38a.635.635 0 00.625-.623V7.194h5.325zm21.973 0a.635.635 0 00.624-.623V.86a.635.635 0 00-.624-.623H91.381a.635.635 0 00-.623.623v5.71c0 .336.288.623.623.623h5.278V28.4c0 .335.288.623.624.623h6.429a.635.635 0 00.623-.623V7.194h5.278zM217.898.238h-6.429c-.336 0-.623.287-.671.623v16.265a5.088 5.088 0 01-5.086 5.085h-.24a5.16 5.16 0 01-4.798-5.23V.862a.635.635 0 00-.623-.623h-6.381a.635.635 0 00-.624.623v15.641c0 6.957 5.469 12.81 12.474 13.002 7.053.144 12.906-5.47 13.002-12.522V.862a.605.605 0 00-.624-.624zm21.446 21.83h-8.252V.86a.635.635 0 00-.624-.623h-6.429a.635.635 0 00-.623.623v26.244c0 1.056.863 1.92 1.919 1.92h14.009a.635.635 0 00.624-.624v-5.71a.635.635 0 00-.624-.624zm-76.716-3.359c4.798-2.495 6.669-8.396 4.174-13.194a9.842 9.842 0 00-8.588-5.277h-11.85c-.432 0-.816.335-.816.767v27.396c0 .335.288.623.624.623h6.429a.634.634 0 00.623-.623v-8.636h.768l5.997 8.731c.288.384.72.624 1.2.624h7.244c.432 0 .768-.336.72-.768a.773.773 0 00-.144-.431l-6.381-9.212zm-1.679-8.732a2.705 2.705 0 01-2.687 2.783h-4.942V7.194h4.942c1.487.048 2.687 1.296 2.687 2.783zM127.94.094c-7.292-.336-13.721 4.797-15.065 11.946-1.679 9.212 5.278 17.224 14.442 17.224 3.166 0 6.237-1.008 8.779-2.879a.622.622 0 00.192-.815c-.048-.048-.048-.096-.096-.144l-4.222-3.838a.502.502 0 00-.623-.048c-1.152.671-2.447 1.055-3.791 1.055-3.358 0-6.285-2.207-6.956-4.99h20.582a.758.758 0 00.768-.767v-2.399c-.24-6.765-5.23-14.01-14.01-14.345zm-7.148 11.37c1.295-2.638 3.694-4.557 6.86-4.557 2.927-.096 5.566 1.775 6.381 4.557h-13.241zM30.882.67L16.344 13.623 1.807.67C1.375.286.704.286.32.717c-.192.24-.288.48-.288.72v26.724c0 .48.384.863.864.863h5.949a.86.86 0 00.864-.863V16.166l7.676 6.861c.528.48 1.343.48 1.871 0l7.677-6.813V28.21c0 .48.383.863.863.863h5.95a.86.86 0 00.863-.863V1.437c0-.576-.48-1.055-1.056-1.055-.24 0-.48.096-.671.287zm34.496 27.683V1.102a.86.86 0 00-.864-.864h-5.805a.86.86 0 00-.864.863v1.344a14.203 14.203 0 00-7.1-1.92C42.827.67 36.542 7.195 36.686 15.16c.144 7.724 6.381 13.961 14.105 14.105 2.495 0 4.942-.672 7.101-1.919v1.056c0 .48.384.863.864.863h5.805a.932.932 0 00.816-.912zM50.984 21.54a6.655 6.655 0 01-6.669-6.67 6.655 6.655 0 016.67-6.668 6.655 6.655 0 016.668 6.669 6.655 6.655 0 01-6.669 6.669zm136.544-2.4a.635.635 0 00.624-.623V12.76a.635.635 0 00-.624-.624h-7.34V7.194h8.204a.635.635 0 00.624-.623V.86a.635.635 0 00-.624-.623h-15.065c-.432 0-.816.335-.816.767v27.252c0 .431.336.815.816.815h6.093a.809.809 0 00.816-.816V19.14h7.292zM66.338 42.699l.047-.048a3.06 3.06 0 00.384-.672c.096-.24.144-.48.144-.767a2.48 2.48 0 00-.528-1.536 5.64 5.64 0 00-.528-.575c-.431-.288-.96-.48-1.487-.48h-3.502v8.828h3.742c.288 0 .576-.048.816-.144a2.663 2.663 0 001.919-2.543c0-.576-.192-1.152-.528-1.583-.144-.192-.336-.336-.48-.48zm-3.791-2.495h1.823a.89.89 0 01.336.096c.096.048.192.144.288.24.144.192.24.432.24.672 0 .191-.096.383-.192.527l-.24.24c-.096.048-.192.096-.288.096h-1.92l-.047-1.871zm2.735 5.421a.976.976 0 01-.72.288h-2.015v-2.255h1.967c.144 0 .288 0 .432.048.144.048.24.144.336.24.096.096.192.24.24.384.191.432.047.96-.24 1.295zm25.62-2.35c.192-.24.335-.528.431-.816.096-.288.144-.576.144-.864a3.1 3.1 0 00-.144-.96 2.667 2.667 0 00-.431-.815c-.192-.24-.384-.48-.672-.624a1.825 1.825 0 00-.816-.383 2.792 2.792 0 00-.911-.144h-4.03v8.828h1.679V44.52h2.11l1.44 2.974h1.871l-1.63-3.358c.383-.24.719-.528.959-.864zm-1.344-.912c-.144.144-.288.288-.48.384a.968.968 0 01-.527.144H86.2v-2.687h2.35c.193 0 .337.048.529.144.191.096.335.192.431.336.24.24.336.575.336.911-.048.288-.144.576-.288.768zm21.59-3.694l-2.687 8.78h1.728l.431-1.392h3.599l.432 1.392h1.727l-2.687-8.828h-2.543v.048zm-.096 5.853l1.296-4.318 1.343 4.318h-2.639zm27.779 0l-3.838-5.853h-1.679v8.78h1.679v-5.854l3.838 5.854h1.679v-8.78h-1.679v5.853zm25.332-4.702a3.236 3.236 0 00-1.247-.864 4.945 4.945 0 00-1.679-.287h-3.119v8.828h3.119c.575 0 1.151-.096 1.679-.288a3.19 3.19 0 001.343-.912 4.43 4.43 0 00.864-1.44 5.504 5.504 0 00.288-1.774c0-.624-.096-1.2-.288-1.776-.288-.575-.576-1.055-.96-1.487zm-.767 4.414a2.706 2.706 0 01-.528.96c-.432.431-1.056.72-1.679.671h-1.392v-5.613h1.44c.336 0 .671.096.959.192.288.096.528.288.72.528.48.623.672 1.39.672 2.11 0 .384-.048.816-.192 1.152zm25.188-1.055c-.192-.192-.432-.336-.672-.48a5.701 5.701 0 00-.959-.384l-1.536-.432c-.383-.096-.719-.24-1.007-.48a.608.608 0 01-.192-.431c0-.144.048-.288.096-.384.096-.144.192-.24.336-.336.288-.192.624-.24 1.007-.24.384 0 .768.096 1.104.336.192.096.336.24.48.384.144.192.239.383.335.575l1.68-.431c-.144-.432-.384-.816-.672-1.2a3.284 3.284 0 00-1.008-.815 4.121 4.121 0 00-1.871-.432c-.336 0-.623.048-.959.096a3.35 3.35 0 00-.912.288c-.432.192-.767.48-1.007.863-.288.384-.384.816-.384 1.296 0 .335.048.671.192.96.144.287.336.575.575.767.48.384 1.056.672 1.68.815l1.631.48c.288.096.576.192.768.384a.775.775 0 01.287.624c0 .288-.143.575-.335.72-.192.143-.384.24-.624.287-.24.048-.48.096-.768.096-.336 0-.623-.048-.911-.192a1.57 1.57 0 01-.72-.527 2.23 2.23 0 01-.432-1.104l-1.679.48c.144.623.384 1.2.816 1.727.335.432.767.72 1.247.912a4.945 4.945 0 001.679.287c.432 0 .912-.047 1.344-.143.383-.096.719-.24 1.055-.432.336-.24.624-.528.816-.912a2.28 2.28 0 00.288-1.151c0-.336-.048-.672-.192-1.008-.048-.288-.288-.624-.576-.863z" fill="#231F20"/></svg>