<svg width="460" height="92" fill="none" xmlns="http://www.w3.org/2000/svg"><path d="M167.966 13.612c.644 0 1.196-.552 1.196-1.196V1.472c0-.644-.552-1.196-1.196-1.196h-34.949c-.643 0-1.195.552-1.195 1.196v10.944c0 .644.552 1.196 1.195 1.196h10.117v40.65c0 .644.552 1.196 1.196 1.196h12.232c.644 0 1.195-.552 1.195-1.196v-40.65h10.209zm42.122 0c.644 0 1.196-.552 1.196-1.196V1.472c0-.644-.552-1.196-1.196-1.196H175.14c-.644 0-1.196.552-1.196 1.196v10.944c0 .644.552 1.196 1.196 1.196h10.117v40.65c0 .644.551 1.196 1.195 1.196h12.324c.644 0 1.196-.552 1.196-1.196v-40.65h10.116zM417.665.276h-12.324c-.644 0-1.196.552-1.288 1.196v31.177c0 5.427-4.414 9.75-9.748 9.75h-.46c-5.243-.369-9.289-4.783-9.197-10.026v-30.9c0-.644-.552-1.196-1.196-1.196H371.22c-.644 0-1.195.552-1.195 1.196v29.982c0 13.335 10.484 24.556 23.912 24.924 13.519.276 24.74-10.485 24.924-24.005V1.473c0-.644-.46-1.196-1.196-1.196zm41.111 41.846h-15.819V1.472c0-.644-.552-1.196-1.196-1.196h-12.324c-.644 0-1.195.552-1.195 1.196v50.307a3.69 3.69 0 003.678 3.679h26.856c.643 0 1.195-.552 1.195-1.196V43.318c0-.644-.552-1.196-1.195-1.196zm-147.061-6.438c9.197-4.782 12.784-16.094 8.002-25.291A18.866 18.866 0 00303.254.276h-22.716c-.828 0-1.564.644-1.564 1.471v52.515c0 .644.552 1.196 1.196 1.196h12.324c.643 0 1.195-.552 1.195-1.196V37.708h1.472l11.496 16.738c.552.736 1.38 1.196 2.299 1.196h13.888c.828 0 1.471-.644 1.379-1.472 0-.276-.092-.551-.276-.827l-12.232-17.659zm-3.218-16.738c.091 2.943-2.3 5.334-5.151 5.334h-9.473V13.612h9.473c2.851.091 5.151 2.483 5.151 5.334zM245.221 0c-13.979-.644-26.303 9.197-28.879 22.9-3.219 17.659 10.117 33.018 27.683 33.018 6.07 0 11.957-1.931 16.831-5.518.552-.368.644-1.104.368-1.564-.092-.092-.092-.184-.184-.276l-8.093-7.357c-.276-.276-.828-.368-1.196-.092-2.207 1.287-4.691 2.023-7.266 2.023-6.438 0-12.048-4.23-13.335-9.565h39.455c.828 0 1.471-.644 1.471-1.471v-4.599C271.616 14.531 262.052.644 245.221 0zm-13.703 21.797c2.483-5.058 7.081-8.737 13.151-8.737 5.61-.184 10.669 3.403 12.232 8.737h-25.383zM59.166 1.104L31.299 25.936 3.431 1.104C2.604.368 1.316.368.58 1.196c-.367.46-.551.92-.551 1.38v51.227c0 .92.735 1.655 1.655 1.655h11.404c.92 0 1.656-.736 1.656-1.655V30.81l14.715 13.152c1.012.92 2.575.92 3.587 0l14.715-13.06v22.992c0 .92.736 1.656 1.656 1.656H60.82c.92 0 1.655-.736 1.655-1.655V2.575c0-1.103-.92-2.023-2.023-2.023-.46 0-.92.184-1.288.552zm66.126 53.066V1.931c0-.92-.736-1.655-1.655-1.655h-11.129c-.92 0-1.655.736-1.655 1.655v2.576c-4.139-2.392-8.829-3.68-13.612-3.68-15.175.277-27.223 12.785-26.947 28.052.276 14.807 12.232 26.763 27.04 27.039 4.782 0 9.472-1.288 13.611-3.679v2.023c0 .92.735 1.656 1.655 1.656h11.129c.827-.092 1.563-.828 1.563-1.748zM97.701 41.11a12.757 12.757 0 01-12.784-12.783 12.757 12.757 0 0112.784-12.784 12.757 12.757 0 0112.784 12.784A12.756 12.756 0 0197.701 41.11zm261.747-4.598c.644 0 1.196-.552 1.196-1.196V24.28c0-.644-.552-1.196-1.196-1.196h-14.071v-9.472h15.726c.644 0 1.196-.552 1.196-1.196V1.472c0-.644-.552-1.196-1.196-1.196h-28.878c-.828 0-1.564.644-1.564 1.471v52.24a1.55 1.55 0 001.564 1.563h11.68a1.55 1.55 0 001.563-1.563V36.511h13.98zM127.131 81.67l.092-.091c.276-.368.552-.828.736-1.288.184-.46.276-.92.276-1.472a4.75 4.75 0 00-1.012-2.943c-.276-.368-.643-.735-1.011-1.103-.828-.552-1.84-.92-2.851-.92h-6.714v16.922h7.173c.552 0 1.104-.091 1.564-.275a5.105 5.105 0 003.679-4.875c0-1.103-.368-2.207-1.012-3.035-.276-.368-.644-.644-.92-.92zm-7.265-4.782h3.495c.184 0 .459.092.643.184s.368.276.552.46c.276.368.46.828.46 1.287 0 .368-.184.736-.368 1.012l-.46.46c-.184.092-.368.184-.551.184h-3.679l-.092-3.587zm5.242 10.393c-.368.367-.828.552-1.379.552h-3.863V83.51h3.771c.275 0 .551 0 .827.092.276.092.46.276.644.46s.368.46.46.735c.368.828.092 1.84-.46 2.484zm49.112-4.507a5.12 5.12 0 00.828-1.563 5.206 5.206 0 00.276-1.656c0-.644-.092-1.287-.276-1.84a5.11 5.11 0 00-.828-1.563c-.368-.46-.736-.92-1.287-1.195-.46-.368-1.012-.644-1.564-.736a5.355 5.355 0 00-1.747-.276h-7.726v16.922h3.219v-5.702h4.047l2.759 5.703h3.587l-3.127-6.438c.735-.46 1.379-1.012 1.839-1.656zm-2.575-1.747c-.276.276-.552.552-.92.735-.276.184-.644.276-1.011.276h-4.507v-5.15h4.507c.367 0 .643.092 1.011.276.368.184.644.368.828.644.46.46.644 1.103.644 1.747-.092.552-.276 1.104-.552 1.472zm41.387-7.082l-5.151 16.83h3.311l.828-2.667h6.898l.827 2.668h3.311l-5.15-16.923h-4.874v.092zm-.184 11.22l2.483-8.277 2.575 8.277h-5.058zm53.25 0l-7.357-11.22h-3.219v16.83h3.219v-11.22l7.357 11.22h3.219v-16.83h-3.219v11.22zm48.56-9.013c-.643-.736-1.471-1.287-2.391-1.655a9.468 9.468 0 00-3.219-.552h-5.978v16.922h5.978a9.47 9.47 0 003.219-.551 6.122 6.122 0 002.575-1.748 8.49 8.49 0 001.656-2.759 10.55 10.55 0 00.552-3.403c0-1.195-.184-2.299-.552-3.403-.552-1.103-1.104-2.023-1.84-2.85zm-1.471 8.462c-.184.643-.552 1.287-1.012 1.839-.827.828-2.023 1.38-3.219 1.288h-2.667V76.979h2.759c.644 0 1.288.184 1.84.368s1.011.552 1.379 1.012c.92 1.195 1.288 2.667 1.288 4.046 0 .736-.092 1.564-.368 2.207zm48.284-2.024c-.368-.368-.827-.644-1.287-.92a10.973 10.973 0 00-1.84-.735l-2.943-.828c-.735-.184-1.379-.46-1.931-.92-.184-.184-.368-.46-.368-.827 0-.276.092-.552.184-.736a2.15 2.15 0 01.644-.644c.552-.368 1.195-.46 1.931-.46s1.472.184 2.115.644c.368.184.644.46.92.736.276.368.46.736.644 1.103l3.219-.827c-.276-.828-.736-1.564-1.288-2.3-.552-.643-1.195-1.195-1.931-1.563a7.908 7.908 0 00-3.587-.828c-.644 0-1.196.092-1.839.184a6.413 6.413 0 00-1.748.552 4.263 4.263 0 00-1.931 1.655c-.552.736-.736 1.564-.736 2.484 0 .643.092 1.287.368 1.839s.644 1.104 1.104 1.472a8.084 8.084 0 003.219 1.563l3.127.92c.551.184 1.103.368 1.471.735.368.276.552.736.552 1.196 0 .552-.276 1.104-.644 1.38a2.84 2.84 0 01-1.195.551c-.46.092-.92.184-1.472.184-.644 0-1.196-.092-1.747-.367-.552-.184-1.012-.552-1.38-1.012-.46-.644-.736-1.288-.828-2.115l-3.219.92c.276 1.195.736 2.298 1.564 3.31.644.828 1.471 1.38 2.391 1.748a9.473 9.473 0 003.219.551c.828 0 1.747-.092 2.575-.275a7.791 7.791 0 002.023-.828c.644-.46 1.196-1.012 1.564-1.748.368-.643.552-1.38.552-2.207 0-.644-.092-1.288-.368-1.931-.092-.552-.552-1.196-1.104-1.656z" fill="#231F20"/></svg>