<svg width="36" height="37" fill="none" xmlns="http://www.w3.org/2000/svg"><rect y=".75" width="36" height="36" rx="18" fill="#000"/><g clip-path="url(#clip0_1_306)"><path d="M23.9 11.55c-.7 0-1.3.6-1.3 1.3 0 .7.6 1.3 1.3 1.3.7 0 1.3-.6 1.3-1.3 0-.7-.6-1.3-1.3-1.3zM18 22.45c-2 0-3.7-1.6-3.7-3.7 0-2 1.6-3.7 3.7-3.7 2 0 3.7 1.6 3.7 3.7 0 2-1.7 3.7-3.7 3.7zm0-9.3c-3.1 0-5.6 2.5-5.6 5.6 0 3.1 2.5 5.6 5.6 5.6 3.1 0 5.6-2.5 5.6-5.6 0-3.1-2.5-5.6-5.6-5.6zm9 10c0 1.1-.2 1.7-.4 2-.2.5-.4.9-.8 1.3s-.8.6-1.3.8c-.4.2-1 .3-2 .4-1.2.1-1.6.1-4.5.1s-3.3 0-4.4-.1c-1.1 0-1.7-.2-2-.4-.5-.2-.9-.4-1.3-.8s-.6-.8-.8-1.3c-.1-.4-.3-1-.4-2-.1-1.1-.1-1.5-.1-4.4 0-2.9 0-3.3.1-4.4 0-1.1.2-1.7.4-2 .2-.5.4-.9.8-1.3s.8-.6 1.3-.8c.4-.2 1-.3 2-.4 1.1-.1 1.5-.1 4.4-.1 2.9 0 3.3 0 4.4.1 1.1 0 1.7.2 2 .4.5.2.9.4 1.3.8s.6.8.8 1.3c.2.4.3 1 .4 2 .1 1.1.1 1.5.1 4.4v4.4zm1.9-8.9c-.1-1.2-.2-2-.5-2.7-.3-.7-.7-1.3-1.3-1.9-.6-.6-1.2-1-1.9-1.3-.7-.3-1.5-.5-2.7-.5-1.1-.1-1.5-.1-4.5-.1s-3.4 0-4.5.1c-1.2.1-2 .2-2.7.5-.7.3-1.3.7-1.9 1.3-.6.6-1 1.2-1.3 1.9-.3.7-.5 1.5-.5 2.7-.1 1.1-.1 1.5-.1 4.5s0 3.4.1 4.5c.1 1.2.2 2 .5 2.7.3.7.7 1.3 1.3 1.9.6.6 1.2 1 1.9 1.3.7.3 1.5.5 2.7.5 1.1.1 1.5.1 4.5.1s3.4 0 4.5-.1c1.2-.1 2-.2 2.7-.5.7-.3 1.3-.7 1.9-1.3.6-.6 1-1.2 1.3-1.9.3-.7.5-1.5.5-2.7.1-1.1.1-1.5.1-4.5s0-3.4-.1-4.5z" fill="#fff"/></g><defs><clipPath id="clip0_1_306"><path fill="#fff" transform="translate(0 .75)" d="M0 0h36v36H0z"/></clipPath></defs></svg>