<svg width="90" height="91" fill="none" xmlns="http://www.w3.org/2000/svg"><path d="M45 90.469c24.853 0 45-20.147 45-45s-20.147-45-45-45-45 20.147-45 45 20.147 45 45 45z" fill="#000"/><path d="M70.875 53.983a4.744 4.744 0 10.001 9.487 4.744 4.744 0 00-.001-9.487zM61.11 27.757L42.678 44.173 24.255 27.757c-.738-.657-1.899-.135-1.899.855V62.38c0 .603.486 1.089 1.089 1.089h7.407c.603 0 1.089-.486 1.089-1.09V47.432l9.576 8.523a1.783 1.783 0 002.358 0l9.576-8.523V62.38c0 .603.486 1.089 1.089 1.089h7.407c.603 0 1.089-.486 1.089-1.09V28.613c-.018-.981-1.188-1.503-1.926-.855z" fill="#fff"/></svg>