<svg width="121" height="121" fill="none" xmlns="http://www.w3.org/2000/svg"><path d="M94.65 46.162l-11.1 11.112V23.05h-52.8v74.4h52.8V77.638l21.288-21.288L94.65 46.162zM81.15 95.05h-48v-69.6h48v34.224L70.974 69.85H40.35v1.2h29.424l-6 6H40.35v1.2h22.56l-1.38 6H40.35v1.2h20.904l-1.296 5.592 13.236-3.048 7.956-7.956V95.05zm-16.2-14.952l5.952 5.952-7.74 1.788 1.788-7.74zm7.212 5.52l-6.792-6.792 24.18-24.18 4.248 4.248-24.18 24.18.852.852 24.18-24.18 1.692 1.692-24.18 24.18zm18.252-31.812l4.248-4.248 6.792 6.792-4.248 4.248-6.792-6.792zM60.75.25c-33.132 0-60 26.868-60 60 0 33.132 26.868 60 60 60 33.132 0 60-26.868 60-60 0-33.132-26.868-60-60-60zm0 117.6c-31.764 0-57.6-25.836-57.6-57.6 0-31.764 25.836-57.6 57.6-57.6 31.764 0 57.6 25.836 57.6 57.6 0 31.764-25.836 57.6-57.6 57.6zm13.2-55.2h-33.6v1.2h33.6v-1.2zm-12-30h-21.6v21.6h21.6v-21.6zm-1.2 20.4h-19.2v-19.2h19.2v19.2z" fill="#fff"/></svg>