<svg width="121" height="121" fill="none" xmlns="http://www.w3.org/2000/svg"><path d="M60.25.25c-33.132 0-60 26.868-60 60 0 33.132 26.868 60 60 60 33.132 0 60-26.868 60-60 0-33.132-26.868-60-60-60zm0 117.6c-31.764 0-57.6-25.836-57.6-57.6 0-31.764 25.836-57.6 57.6-57.6 31.764 0 57.6 25.836 57.6 57.6 0 31.764-25.836 57.6-57.6 57.6zm33-81.66v-5.94h-9.6v4.512l-2.34-4.668a8.34 8.34 0 00-7.512-4.644H63.502a8.34 8.34 0 00-7.512 4.644l-2.484 4.956H31.45c-4.632 0-8.4 3.768-8.4 8.4v33.6c0 4.632 3.768 8.4 8.4 8.4h57.6c4.632 0 8.4-3.768 8.4-8.4v-33.6c0-3.096-1.692-5.808-4.2-7.26zm-7.2-3.54h4.8v2.604a8.034 8.034 0 00-1.8-.204h-3v-2.4zm-43.8 50.4h-10.8c-3.312 0-6-2.688-6-6v-33.6c0-3.312 2.688-6 6-6h10.8v45.6zm52.8-6c0 3.312-2.688 6-6 6h-45.6v-45.6h11.544l3.144-6.288a5.961 5.961 0 015.364-3.312h10.296a5.961 5.961 0 015.364 3.312l3.144 6.288h6.744c3.312 0 6 2.688 6 6v33.6zm-26.4-39.6c-11.916 0-21.6 9.684-21.6 21.6 0 11.916 9.684 21.6 21.6 21.6 11.916 0 21.6-9.684 21.6-21.6 0-11.916-9.684-21.6-21.6-21.6zm0 40.8c-10.584 0-19.2-8.616-19.2-19.2s8.616-19.2 19.2-19.2 19.2 8.616 19.2 19.2-8.616 19.2-19.2 19.2zm0-34.8c-8.616 0-15.6 6.984-15.6 15.6s6.984 15.6 15.6 15.6 15.6-6.984 15.6-15.6-6.984-15.6-15.6-15.6zm0 30c-7.944 0-14.4-6.456-14.4-14.4s6.456-14.4 14.4-14.4 14.4 6.456 14.4 14.4-6.456 14.4-14.4 14.4zm-39.6-27.6c0 2.652 2.148 4.8 4.8 4.8 2.652 0 4.8-2.148 4.8-4.8 0-2.652-2.148-4.8-4.8-4.8a4.799 4.799 0 00-4.8 4.8zm4.8-3.6c1.98 0 3.6 1.62 3.6 3.6s-1.62 3.6-3.6 3.6a3.61 3.61 0 01-3.6-3.6c0-1.98 1.62-3.6 3.6-3.6z" fill="#fff"/></svg>