<svg width="121" height="121" fill="none" xmlns="http://www.w3.org/2000/svg"><path d="M60.25.25c-33.132 0-60 26.868-60 60 0 33.132 26.868 60 60 60 33.132 0 60-26.868 60-60 0-33.132-26.868-60-60-60zm0 117.6c-31.764 0-57.6-25.836-57.6-57.6 0-31.764 25.836-57.6 57.6-57.6 31.764 0 57.6 25.836 57.6 57.6 0 31.764-25.836 57.6-57.6 57.6zm-24-78a8.394 8.394 0 00-8.4 8.4c0 4.644 3.756 8.4 8.4 8.4s8.4-3.756 8.4-8.4-3.756-8.4-8.4-8.4zm0 15.6a7.206 7.206 0 01-7.2-7.2c0-3.972 3.228-7.2 7.2-7.2s7.2 3.228 7.2 7.2-3.228 7.2-7.2 7.2zm32.4-13.8h-19.2v1.2h19.2v-1.2zm0 6h-19.2v1.2h19.2v-1.2zm26.4 4.2h-18v-14.4c0-3.312-2.688-6-6-6h-43.2c-3.312 0-6 2.688-6 6v21.6c0 3.312 2.688 6 6 6h1.2v9.84l11.256-9.84h5.544v14.4c0 3.312 2.688 6 6 6h30.744l11.256 9.84v-9.84h1.2c3.312 0 6-2.688 6-6v-21.6c0-3.312-2.688-6-6-6zm-49.2 6v4.8h-6.456l-7.944 6.96v-6.96h-3.6a3.61 3.61 0 01-3.6-3.6v-21.6c0-1.98 1.62-3.6 3.6-3.6h43.2c1.98 0 3.6 1.62 3.6 3.6v14.4h-22.8c-3.312 0-6 2.688-6 6zm52.8 21.6c0 1.98-1.62 3.6-3.6 3.6h-3.6v6.96l-7.944-6.96H51.85a3.61 3.61 0 01-3.6-3.6v-21.6c0-1.98 1.62-3.6 3.6-3.6h43.2c1.98 0 3.6 1.62 3.6 3.6v21.6zm-12-19.2a8.394 8.394 0 00-8.4 8.4c0 4.644 3.756 8.4 8.4 8.4s8.4-3.756 8.4-8.4-3.756-8.4-8.4-8.4zm0 15.6a7.206 7.206 0 01-7.2-7.2c0-3.972 3.228-7.2 7.2-7.2s7.2 3.228 7.2 7.2-3.228 7.2-7.2 7.2zm-32.4-12.6h19.2v-1.2h-19.2v1.2zm0 6h19.2v-1.2h-19.2v1.2zm0 6h12v-1.2h-12v1.2z" fill="#fff"/></svg>