<svg width="121" height="121" fill="none" xmlns="http://www.w3.org/2000/svg"><path d="M60.822.25h-.072C27.642.25.798 27.058.75 60.178.702 93.31 27.534 120.202 60.678 120.25h.072c33.096 0 59.952-26.808 60-59.928C120.798 27.19 93.966.298 60.822.25zm-.072 117.6h-.072C28.914 117.814 3.114 91.942 3.15 60.178 3.186 28.462 29.034 2.65 60.75 2.65h.072c31.764.036 57.564 25.908 57.528 57.672-.036 31.716-25.884 57.528-57.6 57.528zm31.2-86.304h-69.6v48h30v4.8h-6v2.4h21.6v-2.4h-6v-4.8h13.2v14.4h24v-36h-7.2v-26.4zm-32.4 52.8h-4.8v-4.8h4.8v4.8zm15.6-7.2h-50.4v-43.2h64.8v24h-14.4v19.2zm21.6-16.8v31.2h-19.2v-31.2h19.2z" fill="#fff"/></svg>