<svg width="121" height="121" fill="none" xmlns="http://www.w3.org/2000/svg"><path d="M60.75.25c-33.132 0-60 26.868-60 60 0 33.132 26.868 60 60 60 33.132 0 60-26.868 60-60 0-33.132-26.868-60-60-60zm0 117.6c-31.764 0-57.6-25.836-57.6-57.6 0-31.764 25.836-57.6 57.6-57.6 31.764 0 57.6 25.836 57.6 57.6 0 31.764-25.836 57.6-57.6 57.6zm-22.8-88.8h2.4v-1.2h-2.4v1.2zm16.8-1.2h-2.4v1.2h2.4v-1.2zm7.2 0h-2.4v1.2h2.4v-1.2zm-16.8 1.2h2.4v-1.2h-2.4v1.2zm24-1.2h-2.4v1.2h2.4v-1.2zm-31.2 58.8h2.4v-1.2h-2.4v1.2zm7.2 0h2.4v-1.2h-2.4v1.2zm7.2 0h2.4v-1.2h-2.4v1.2zm26.292-22.164c.552-12.804-.612-26.832-3.492-35.628V20.65h-45.6v8.208c-4.848 14.784-4.848 44.388 0 58.008v8.184h29.772c.336.852.648 1.632.924 2.268 1.968 4.584 7.272 6.732 16.704 6.732s14.736-2.136 16.704-6.732c1.8-4.2 5.568-15.612 5.7-16.02l.108-.276c2.46-1.656 3.888-3.624 3.888-5.784 0-5.916-10.512-10.416-24.708-10.752zM31.95 92.65v-6h1.2v-1.2h-1.536c-4.428-13.32-4.344-42.168.276-56.016l.06-.192v-.192h1.2v-1.2h-1.2v-4.8h40.8v6.192l.06.18c2.808 8.424 3.936 22.38 3.396 35.04C61.53 64.618 50.55 69.19 50.55 75.25c0 2.076 1.308 3.972 3.6 5.58l.648 1.776c.108.312 1.932 5.544 3.612 10.044H31.95zm59.496 3.732c-1.548 3.6-6.144 5.268-14.496 5.268s-12.96-1.68-14.496-5.268c-.864-2.028-2.184-5.568-3.3-8.664 3.324 1.74 9.348 3.132 17.796 3.132 8.352 0 14.328-1.356 17.676-3.072-1.116 3.228-2.364 6.708-3.18 8.604zm3.78-10.344c-2.748 1.92-9.3 3.612-18.276 3.612-9.144 0-15.78-1.764-18.432-3.72-.504-1.404-.912-2.58-1.176-3.324 4.752 2.136 11.652 3.432 19.608 3.432 7.848 0 14.664-1.272 19.416-3.348-.312.936-.708 2.088-1.14 3.348zM76.95 83.65c-14.148 0-24-4.428-24-8.4 0-3.972 9.852-8.4 24-8.4s24 4.428 24 8.4c0 3.972-9.852 8.4-24 8.4z" fill="#fff"/></svg>