<svg width="121" height="121" fill="none" xmlns="http://www.w3.org/2000/svg"><path d="M60.322.25h-.072C27.142.25.298 27.058.25 60.178.202 93.31 27.034 120.202 60.178 120.25h.072c33.096 0 59.952-26.808 60-59.928C120.298 27.19 93.466.298 60.322.25zm-.072 117.6h-.072C28.414 117.814 2.614 91.942 2.65 60.178 2.686 28.462 28.534 2.65 60.25 2.65h.072c31.764.036 57.564 25.908 57.528 57.672-.036 31.716-25.884 57.528-57.6 57.528zm37.2-33.6V43.354h2.4v-14.4h-79.2v14.4h2.4V84.25h-6v2.4h13.2v5.904h-4.8v2.4h40.8v-2.4h-4.8V86.65h13.2v5.904h-3.6v2.4h21.6v-2.4h-3.6V86.65h14.4v-2.4h-6zm-74.4-52.896h74.4v9.6h-74.4v-9.6zm36 61.2h-26.4v-19.2h26.4v19.2zm-16.8-25.2v3.6h-7.2v-3.6c0-1.98 1.62-3.6 3.6-3.6s3.6 1.62 3.6 3.6zm-7.2-8.4c0-1.98 1.62-3.6 3.6-3.6s3.6 1.62 3.6 3.6-1.62 3.6-3.6 3.6-3.6-1.608-3.6-3.6zm21.6 8.4v3.6h-7.2v-3.6c0-1.98 1.62-3.6 3.6-3.6s3.6 1.62 3.6 3.6zm-7.2-8.4c0-1.98 1.62-3.6 3.6-3.6s3.6 1.62 3.6 3.6-1.62 3.6-3.6 3.6-3.6-1.608-3.6-3.6zm37.2 33.6h-9.6v-32.4h9.6v32.4zm0-33.6h-9.6v-2.4h9.6v2.4zm8.4 25.296h-6V54.154h-14.4V84.25h-13.2V70.954h-3.6v-3.6c0-1.824-1.032-3.384-2.52-4.2 1.5-.816 2.52-2.376 2.52-4.2 0-2.652-2.148-4.8-4.8-4.8a4.799 4.799 0 00-4.8 4.8c0 1.824 1.032 3.384 2.52 4.2-1.5.816-2.52 2.376-2.52 4.2v3.6h-4.8v-3.6c0-1.824-1.032-3.384-2.52-4.2 1.5-.816 2.52-2.376 2.52-4.2 0-2.652-2.148-4.8-4.8-4.8a4.799 4.799 0 00-4.8 4.8c0 1.824 1.032 3.384 2.52 4.2-1.5.816-2.52 2.376-2.52 4.2v3.6h-3.6V84.25h-4.8V43.354h69.6V84.25z" fill="#fff"/></svg>