<svg width="121" height="121" fill="none" xmlns="http://www.w3.org/2000/svg"><path d="M60.75.25c-33.132 0-60 26.868-60 60 0 33.132 26.868 60 60 60 33.132 0 60-26.868 60-60 0-33.132-26.868-60-60-60zm0 117.6c-31.764 0-57.6-25.836-57.6-57.6 0-31.764 25.836-57.6 57.6-57.6 31.764 0 57.6 25.836 57.6 57.6 0 31.764-25.836 57.6-57.6 57.6zm-15.6-28.8a9.597 9.597 0 00-9.6 9.6c0 5.304 4.296 9.6 9.6 9.6 5.304 0 9.6-4.296 9.6-9.6 0-5.304-4.296-9.6-9.6-9.6zm0 16.8a7.206 7.206 0 01-7.2-7.2c0-3.972 3.228-7.2 7.2-7.2s7.2 3.228 7.2 7.2-3.228 7.2-7.2 7.2zm-16.908-48.6l8.748-8.748-1.692-1.692-8.748 8.748-8.748-8.748-1.692 1.692 8.748 8.748-8.748 8.748 1.692 1.692 8.748-8.748 8.748 8.748 1.692-1.692-8.748-8.748zm23.16-21.948l8.748-8.748 8.748 8.748 1.692-1.692-8.748-8.748 8.748-8.748-1.692-1.692-8.748 8.748-8.748-8.748-1.692 1.692 8.748 8.748-8.748 8.748 1.692 1.692zm42.696 37.896l-8.748 8.748-8.748-8.748-1.692 1.692 8.748 8.748-8.748 8.748 1.692 1.692 8.748-8.748 8.748 8.748 1.692-1.692-8.748-8.748 8.748-8.748-1.692-1.692zM88.362 31.69l1.488 9.168c-11.04 1.38-19.62 6.012-25.068 9.888a9.517 9.517 0 00-6.432-2.496 9.597 9.597 0 00-9.6 9.6c0 5.304 4.296 9.6 9.6 9.6a9.597 9.597 0 008.04-14.844c5.256-3.684 13.476-8.076 23.856-9.372l1.452 8.976 16.104-13.14-19.44-7.38zM58.35 65.05a7.206 7.206 0 01-7.2-7.2c0-3.972 3.228-7.2 7.2-7.2s7.2 3.228 7.2 7.2-3.228 7.2-7.2 7.2zm33.048-29.64l11.664 4.428-9.66 7.884-2.004-12.312zM46.95 82.75l-2.352-.468a52.342 52.342 0 00-.444 2.52l2.376.348c.132-.816.264-1.62.42-2.4zm2.004-7.032l-2.244-.84c-.288.78-.576 1.596-.828 2.424l2.292.72c.24-.792.504-1.56.78-2.304zm3.096-6.624l-2.088-1.188c-.408.72-.816 1.476-1.212 2.268l2.148 1.08c.372-.756.768-1.476 1.152-2.16z" fill="#fff"/></svg>