<svg width="121" height="121" fill="none" xmlns="http://www.w3.org/2000/svg"><path d="M60.25.25c-33.132 0-60 26.868-60 60 0 33.132 26.868 60 60 60 33.132 0 60-26.868 60-60 0-33.132-26.868-60-60-60zm0 117.6c-31.764 0-57.6-25.836-57.6-57.6 0-31.764 25.836-57.6 57.6-57.6 31.764 0 57.6 25.836 57.6 57.6 0 31.764-25.836 57.6-57.6 57.6zm31.2-60h7.2v-1.2h-7.2v1.2zm-62.4-1.2h-7.2v1.2h7.2v-1.2zm64.752-18.084l-.6-1.044-6.24 3.6.6 1.044 6.24-3.6zM26.698 75.934l.6 1.044 6.24-3.6-.6-1.044-6.24 3.6zm53.268-51.636l-1.044-.6-3.6 6.24 1.044.6 3.6-6.24zM60.85 18.85h-1.2v7.2h1.2v-7.2zM45.166 29.926l-3.6-6.24-1.044.6 3.6 6.24 1.044-.6zm-18.468 8.64l6.24 3.6.6-1.044-6.24-3.6-.6 1.044zm60.276 34.8l6.24 3.6.6-1.044-6.24-3.6-.6 1.044zM60.25 31.45c-13.92 0-25.2 11.28-25.2 25.2 0 9.564 5.352 17.856 13.2 22.116v15.576l5.508 5.508h12.996l5.496-5.508V78.766c7.848-4.26 13.2-12.552 13.2-22.116 0-13.92-11.28-25.2-25.2-25.2zm5.508 66H54.754l-3.6-3.6h18.204l-3.6 3.6zm4.092-4.8h-19.2v-3.6h19.2v3.6zm0-4.8h-19.2v-3.6h19.2v3.6zm0-4.8h-19.2v-3.6h19.2v3.6zm-13.2-18.6c0 1.02.396 1.884 1.164 2.496.648.516 1.512.804 2.436.804 1.788 0 3.6-1.128 3.6-3.3 0-1.284-1.02-2.58-2.604-3.876 2.064-1.428 4.74-2.88 7.128-4.176.432-.24.864-.468 1.284-.696-1.248 7.332-2.76 17.88-3.24 21.336H54.082c-.492-3.456-1.992-14.004-3.24-21.336.42.228.852.456 1.284.696 2.388 1.296 5.064 2.748 7.128 4.176-1.584 1.296-2.604 2.592-2.604 3.876zm3.6-3.144c1.452 1.116 2.4 2.196 2.4 3.144 0 1.452-1.2 2.1-2.4 2.1s-2.4-.648-2.4-2.1c0-.948.948-2.028 2.4-3.144zM70.354 77.05h-2.736c.528-3.756 2.136-14.916 3.372-22.08 3.12-1.74 5.544-3.3 6.024-4.728.312-.948.3-1.836-.06-2.58a2.735 2.735 0 00-1.644-1.428c-1.488-.504-3.492.18-4.236 2.424-.288.852-.696 2.904-1.164 5.532-.708.384-1.416.78-2.112 1.152-2.712 1.464-5.46 2.964-7.548 4.464-2.088-1.5-4.848-3-7.548-4.464a183.13 183.13 0 01-2.112-1.152c-.468-2.64-.876-4.68-1.164-5.532-.744-2.244-2.736-2.928-4.236-2.424-.732.24-1.32.756-1.644 1.428-.348.744-.372 1.632-.06 2.58.48 1.428 2.892 2.988 6.024 4.728 1.236 7.164 2.844 18.324 3.372 22.08h-2.736c-7.512-3.732-12.696-11.46-12.696-20.4 0-12.576 10.224-22.8 22.8-22.8s22.8 10.224 22.8 22.8c0 8.94-5.184 16.668-12.696 20.4zm.924-23.616c.384-2.1.708-3.696.948-4.392.408-1.224 1.284-1.764 2.124-1.764.204 0 .408.036.6.096.42.144.756.432.936.816.216.456.216 1.032 0 1.68-.312.912-2.268 2.22-4.608 3.564zm-22.056 0c-2.34-1.344-4.296-2.652-4.608-3.576-.216-.648-.216-1.224 0-1.68.18-.384.516-.672.936-.816.192-.06.396-.096.6-.096.828 0 1.716.54 2.124 1.764.24.72.576 2.304.948 4.404z" fill="#fff"/></svg>