<svg width="71" height="71" fill="none" xmlns="http://www.w3.org/2000/svg"><path d="M35.984 67.188c-17.6 0-32-14.4-32-32s14.4-32 32-32 32 14.4 32 32-14.4 32-32 32zm0-62c-16.5 0-30 13.5-30 30s13.5 30 30 30 30-13.5 30-30-13.5-30-30-30z" fill="#fff"/><path d="M19.984 42.188c-.3 0-.5-.1-.7-.3l-6.7-6.7 6.7-6.7c.4-.4 1-.4 1.4 0 .4.4.4 1 0 1.4l-5.3 5.3 5.3 5.3c.4.4.4 1 0 1.4-.2.2-.4.3-.7.3zm32 0c-.3 0-.5-.1-.7-.3-.4-.4-.4-1 0-1.4l5.3-5.3-5.3-5.3c-.4-.4-.4-1 0-1.4.4-.4 1-.4 1.4 0l6.7 6.7-6.7 6.7c-.2.2-.4.3-.7.3z" fill="#fff"/></svg>