<svg width="36" height="37" fill="none" xmlns="http://www.w3.org/2000/svg"><rect y=".75" width="36" height="36" rx="18" fill="#000"/><g clip-path="url(#clip0_1_312)"><path d="M27.5 13.05c-.7.3-1.5.5-2.3.6.8-.5 1.4-1.3 1.7-2.2-.8.5-1.6.8-2.5 1-.7-.8-1.8-1.2-2.9-1.2-2.2 0-4 1.8-4 4 0 .3 0 .6.1.9-3.3-.2-6.2-1.7-8.2-4.1-.3.6-.5 1.3-.5 2 0 1.4.7 2.6 1.8 3.3-.6 0-1.3-.2-1.8-.5 0 1.9 1.4 3.5 3.2 3.9-.3.1-.7.1-1 .1-.3 0-.5 0-.7-.1.5 1.6 2 2.7 3.7 2.7-1.4 1.1-3.1 1.7-4.9 1.7-.3 0-.6 0-.9-.1 1.8 1.1 3.8 1.8 6.1 1.8 7.3 0 11.3-6 11.3-11.3v-.5c.6-.5 1.2-1.2 1.8-2z" fill="#fff"/></g><defs><clipPath id="clip0_1_312"><path fill="#fff" transform="translate(0 .75)" d="M0 0h36v36H0z"/></clipPath></defs></svg>